<svg width="19" height="20" viewBox="0 0 19 20" fill="none" xmlns="http://www.w3.org/2000/svg">
<path d="M5.75 5V13C5.75 13.5304 5.96071 14.0391 6.33579 14.4142C6.71086 14.7893 7.21957 15 7.75 15H13.75M5.75 5V3C5.75 2.46957 5.96071 1.96086 6.33579 1.58579C6.71086 1.21071 7.21957 1 7.75 1H12.336C12.6012 1.00006 12.8555 1.10545 13.043 1.293L17.457 5.707C17.6446 5.89449 17.7499 6.1488 17.75 6.414V13C17.75 13.5304 17.5393 14.0391 17.1642 14.4142C16.7891 14.7893 16.2804 15 15.75 15H13.75M5.75 5H3.75C3.21957 5 2.71086 5.21071 2.33579 5.58579C1.96071 5.96086 1.75 6.46957 1.75 7V17C1.75 17.5304 1.96071 18.0391 2.33579 18.4142C2.71086 18.7893 3.21957 19 3.75 19H11.75C12.2804 19 12.7891 18.7893 13.1642 18.4142C13.5393 18.0391 13.75 17.5304 13.75 17V15" stroke="black" stroke-width="2" stroke-linecap="round" stroke-linejoin="round"/>
</svg>
