<svg width="24" height="25" viewBox="0 0 24 25" fill="none" xmlns="http://www.w3.org/2000/svg">
<path d="M5 12.2642C5 8.96433 5 7.31441 6.02513 6.28929C7.05025 5.26416 8.70017 5.26416 12 5.26416C15.2998 5.26416 16.9497 5.26416 17.9749 6.28929C19 7.31441 19 8.96433 19 12.2642C19 15.564 19 17.2139 17.9749 18.239C16.9497 19.2642 15.2998 19.2642 12 19.2642C8.70017 19.2642 7.05025 19.2642 6.02513 18.239C5 17.2139 5 15.564 5 12.2642Z" stroke="#1C274C" stroke-width="1.5"/>
<circle cx="14.5" cy="9.76416" r="1.5" stroke="#1C274C" stroke-width="1.5"/>
<path d="M5 12.8206L6.19845 11.6856C6.82195 11.0951 7.76166 11.129 8.34749 11.7631L11.2826 14.94C11.7528 15.4489 12.493 15.5183 13.037 15.1045L13.241 14.9493C14.0239 14.3537 15.0832 14.4227 15.7944 15.1156L18 17.2642" stroke="#1C274C" stroke-width="1.5" stroke-linecap="round"/>
</svg>
