<svg width="24" height="25" viewBox="0 0 24 25" fill="none" xmlns="http://www.w3.org/2000/svg">
<path fill-rule="evenodd" clip-rule="evenodd" d="M12.2006 3.87793C10.2143 3.87792 8.65772 3.87791 7.44319 4.0412C6.20004 4.20834 5.21909 4.55712 4.44914 5.32707C3.67919 6.09702 3.33041 7.07797 3.16327 8.32112C2.99998 9.53565 2.99999 11.0923 3 13.0786V13.1773C2.99999 15.1636 2.99998 16.7202 3.16327 17.9347C3.33041 19.1779 3.67919 20.1588 4.44914 20.9288C5.21909 21.6987 6.20004 22.0475 7.44319 22.2147C8.65772 22.3779 10.2143 22.3779 12.2006 22.3779H12.2994C14.2857 22.3779 15.8423 22.3779 17.0568 22.2147C18.3 22.0475 19.2809 21.6987 20.0509 20.9288C20.8208 20.1588 21.1696 19.1779 21.3367 17.9347C21.5 16.7202 21.5 15.1636 21.5 13.1773V13.0786C21.5 11.0923 21.5 9.53565 21.3367 8.32112C21.1696 7.07797 20.8208 6.09702 20.0509 5.32707C19.2809 4.55712 18.3 4.20834 17.0568 4.0412C15.8423 3.87791 14.2857 3.87792 12.2994 3.87793H12.2006ZM7.30233 5.36809C6.38608 5.52577 5.80365 5.79788 5.3618 6.23973C4.87163 6.7299 4.59035 7.39308 4.44246 8.4931C4.29207 9.61169 4.2907 11.0815 4.2907 13.1279C4.2907 15.1743 4.29207 16.6442 4.44246 17.7628C4.59035 18.8628 4.87163 19.526 5.3618 20.0161C5.85197 20.5063 6.51515 20.7876 7.61517 20.9355C8.73376 21.0859 10.2036 21.0872 12.25 21.0872C14.2964 21.0872 15.7662 21.0859 16.8848 20.9355C17.9849 20.7876 18.648 20.5063 19.1382 20.0161C19.6284 19.526 19.9096 18.8628 20.0575 17.7628C20.2079 16.6442 20.2093 15.1743 20.2093 13.1279C20.2093 11.0815 20.2079 9.61169 20.0575 8.4931C19.9096 7.39308 19.6284 6.7299 19.1382 6.23973C18.6964 5.79788 18.1139 5.52577 17.1977 5.36809V10.4011C17.1977 10.8034 17.1977 11.1335 17.1827 11.3931C17.168 11.6493 17.1362 11.9146 17.031 12.1515C16.6512 13.0066 15.7141 13.4677 14.8048 13.247C14.553 13.1858 14.3234 13.0491 14.1114 12.9045C13.8965 12.7579 13.6351 12.5566 13.3163 12.3111L13.3003 12.2989C12.8965 11.9879 12.7828 11.9064 12.6786 11.8611C12.4052 11.7423 12.0948 11.7423 11.8214 11.8611C11.7172 11.9064 11.6035 11.9879 11.1997 12.2989L11.1837 12.3111C10.8649 12.5566 10.6035 12.7579 10.3886 12.9045C10.1766 13.0491 9.94701 13.1858 9.69516 13.247C8.78588 13.4677 7.84883 13.0066 7.46901 12.1515C7.36381 11.9146 7.33205 11.6493 7.31729 11.3931C7.30232 11.1335 7.30232 10.8035 7.30233 10.4011V5.36809ZM15.907 5.22883C14.9382 5.16936 13.7487 5.16863 12.25 5.16863C10.7513 5.16863 9.56177 5.16936 8.59302 5.22883V10.381C8.59302 10.8084 8.59328 11.1009 8.60584 11.3189C8.61886 11.5447 8.64267 11.6142 8.64858 11.6275C8.77519 11.9126 9.08754 12.0663 9.39063 11.9927C9.4048 11.9893 9.47438 11.9657 9.66127 11.8382C9.84166 11.7152 10.0736 11.537 10.4122 11.2762L10.4699 11.2318C10.7884 10.9862 11.0367 10.7948 11.3071 10.6773C11.9085 10.416 12.5915 10.416 13.1929 10.6773C13.4633 10.7948 13.7116 10.9862 14.0301 11.2318L14.0878 11.2762C14.4264 11.537 14.6583 11.7152 14.8387 11.8382C15.0256 11.9657 15.0952 11.9893 15.1094 11.9927C15.4125 12.0663 15.7248 11.9126 15.8514 11.6275C15.8573 11.6142 15.8811 11.5447 15.8942 11.3189C15.9067 11.1009 15.907 10.8084 15.907 10.381V5.22883Z" fill="white"/>
</svg>
