<svg width="24" height="25" viewBox="0 0 24 25" fill="none" xmlns="http://www.w3.org/2000/svg">
<path fill-rule="evenodd" clip-rule="evenodd" d="M7.2 6.1087C6.64772 6.1087 6.2 6.56789 6.2 7.13434C6.2 7.70079 6.64772 8.15998 7.2 8.15998C7.75228 8.15998 8.2 7.70079 8.2 7.13434C8.2 6.56789 7.75228 6.1087 7.2 6.1087ZM5 7.13434C5 5.88816 5.98497 4.87793 7.2 4.87793C8.20702 4.87793 9.05602 5.57188 9.31719 6.51896H15.6C17.4778 6.51896 19 8.08022 19 10.0061C19 11.9321 17.4778 13.4933 15.6 13.4933H8.4C7.18497 13.4933 6.2 14.5035 6.2 15.7497C6.2 16.9959 7.18497 18.0061 8.4 18.0061H16.9515L16.3757 17.4156C16.1414 17.1753 16.1414 16.7857 16.3757 16.5454C16.6101 16.305 16.99 16.305 17.2243 16.5454L18.8243 18.1864C19.0586 18.4267 19.0586 18.8163 18.8243 19.0567L17.2243 20.6977C16.99 20.938 16.6101 20.938 16.3757 20.6977C16.1414 20.4574 16.1414 20.0677 16.3757 19.8274L16.9515 19.2369H8.4C6.52223 19.2369 5 17.6756 5 15.7497C5 13.8238 6.52223 12.2625 8.4 12.2625H15.6C16.815 12.2625 17.8 11.2523 17.8 10.0061C17.8 8.75995 16.815 7.74972 15.6 7.74972H9.31719C9.05602 8.6968 8.20702 9.39075 7.2 9.39075C5.98497 9.39075 5 8.38052 5 7.13434Z" fill="black"/>
</svg>
