<svg width="24" height="25" viewBox="0 0 24 25" fill="none" xmlns="http://www.w3.org/2000/svg">
<path d="M17.5814 16.971C17.5814 17.382 17.2482 17.7151 16.8372 17.7151C16.4262 17.7151 16.093 17.382 16.093 16.971C16.093 16.5599 16.4262 16.2268 16.8372 16.2268C17.2482 16.2268 17.5814 16.5599 17.5814 16.971Z" fill="black"/>
<path d="M7.90698 8.04072C7.90698 8.45172 7.57379 8.78491 7.16279 8.78491C6.75179 8.78491 6.4186 8.45172 6.4186 8.04072C6.4186 7.62972 6.75179 7.29653 7.16279 7.29653C7.57379 7.29653 7.90698 7.62972 7.90698 8.04072Z" fill="black"/>
<path fill-rule="evenodd" clip-rule="evenodd" d="M4 7.86012C4 6.17601 5.45448 4.87793 7.16279 4.87793C8.8711 4.87793 10.3256 6.17601 10.3256 7.86012C10.3256 9.36804 9.39847 11.1478 7.85842 11.8059C7.41597 11.995 6.90961 11.995 6.46716 11.8059C4.92711 11.1478 4 9.36804 4 7.86012ZM7.16279 5.99421C5.99408 5.99421 5.11628 6.8667 5.11628 7.86012C5.11628 9.00874 5.8518 10.329 6.90582 10.7794C7.06808 10.8488 7.2575 10.8488 7.41976 10.7794C8.47379 10.329 9.2093 9.00874 9.2093 7.86012C9.2093 6.8667 8.3315 5.99421 7.16279 5.99421ZM11.4419 7.66863C11.4419 7.36038 11.6917 7.11049 12 7.11049H15.0749C17.1223 7.11049 17.9009 9.78435 16.1736 10.8836L8.4257 15.8141C7.64054 16.3137 7.99447 17.5291 8.92511 17.5291H10.6525L10.4891 17.3656C10.2711 17.1476 10.2711 16.7943 10.4891 16.5763C10.707 16.3583 11.0604 16.3583 11.2784 16.5763L12.3947 17.6926C12.6126 17.9105 12.6126 18.2639 12.3947 18.4819L11.2784 19.5982C11.0604 19.8161 10.707 19.8161 10.4891 19.5982C10.2711 19.3802 10.2711 19.0268 10.4891 18.8088L10.6525 18.6454H8.92511C6.87768 18.6454 6.09906 15.9715 7.82639 14.8723L15.5743 9.9418C16.3595 9.44216 16.0055 8.22677 15.0749 8.22677H12C11.6917 8.22677 11.4419 7.97688 11.4419 7.66863ZM13.6744 16.7903C13.6744 15.1062 15.1289 13.8082 16.8372 13.8082C18.5455 13.8082 20 15.1062 20 16.7903C20 18.2983 19.0729 20.078 17.5328 20.7361C17.0904 20.9252 16.584 20.9252 16.1416 20.7361C14.6015 20.078 13.6744 18.2983 13.6744 16.7903ZM16.8372 14.9244C15.6685 14.9244 14.7907 15.7969 14.7907 16.7903C14.7907 17.939 15.5262 19.2592 16.5802 19.7096C16.7425 19.779 16.9319 19.779 17.0942 19.7096C18.1482 19.2592 18.8837 17.939 18.8837 16.7903C18.8837 15.7969 18.0059 14.9244 16.8372 14.9244Z" fill="black"/>
</svg>
