<svg width="48" height="48" viewBox="0 0 48 48" fill="none" xmlns="http://www.w3.org/2000/svg">
<path d="M22.2154 16.7744L22.6279 9.1978C22.6279 9.19164 22.6284 9.18556 22.6286 9.17949C22.6295 9.14357 22.6296 9.10749 22.6296 9.07181C22.628 7.93888 22.1771 6.85285 21.3757 6.05197C20.5744 5.2511 19.4881 4.80078 18.3552 4.7998C12.7743 4.7998 8.23392 9.33845 8.23392 14.9172C8.23392 15.0009 8.23496 15.0846 8.23704 15.1684C8.23704 15.1772 8.55064 19.9501 8.55064 19.9501L8.16824 20.3673C8.06003 20.4854 8 20.6397 8 20.7998V23.9998L9.06512 27.79L9.64496 37.6248C9.73036 39.1593 10.411 40.5999 11.542 41.6404C12.6731 42.6809 14.1654 43.2392 15.7017 43.1966C17.2379 43.154 18.697 42.5138 19.7686 41.4121C20.8402 40.3105 21.4398 38.8343 21.44 37.2974C21.44 37.2974 21.4601 30.7352 21.4991 29.9534L22.7033 24.7848C22.7144 24.7372 22.72 24.6886 22.72 24.6398V17.5998C22.72 17.447 22.6653 17.2993 22.5659 17.1833L22.2154 16.7744ZM19.7455 31.8393C19.7446 31.8432 19.7438 31.8469 19.743 31.8508C19.7121 31.994 19.6293 32.1208 19.5106 32.2067C19.3919 32.2927 19.2457 32.3317 19.0999 32.3164C18.9542 32.301 18.8193 32.2324 18.7211 32.1236C18.6229 32.0148 18.5684 31.8735 18.568 31.727C18.5677 31.6829 18.5725 31.639 18.5822 31.596L21.0444 21.8098L21.44 22.3043V24.5662L19.7455 31.8393ZM9.35944 24.1855L10.2524 23.2925L12.712 31.5781C12.7258 31.6288 12.7328 31.6812 12.733 31.7337C12.7322 31.8764 12.6798 32.0139 12.5853 32.1208C12.4909 32.2276 12.3608 32.2966 12.2194 32.3148C12.0779 32.3331 11.9346 32.2993 11.8161 32.2199C11.6977 32.1405 11.6121 32.0207 11.5752 31.8829C11.5742 31.8788 11.573 31.8749 11.5718 31.8708L9.35944 24.1855ZM10.108 21.6268L10.1074 21.6272L9.28 22.4547V21.0488L16.152 13.5523C16.2601 13.4342 16.3201 13.2799 16.32 13.1198V12.4798C16.32 12.3101 16.3874 12.1473 16.5075 12.0273C16.6275 11.9072 16.7903 11.8398 16.96 11.8398C17.1297 11.8398 17.2925 11.9072 17.4125 12.0273C17.5326 12.1473 17.6 12.3101 17.6 12.4798V13.1198C17.6 13.2726 17.6547 13.4203 17.7541 13.5363L21.44 17.8365V20.2552L17.4598 15.2798C17.4035 15.2096 17.3331 15.152 17.2531 15.1108C17.1732 15.0696 17.0854 15.0457 16.9956 15.0407C16.9057 15.0357 16.8158 15.0498 16.7318 15.0819C16.6477 15.114 16.5714 15.1634 16.5078 15.227L10.108 21.6268ZM9.516 15.124C9.5144 15.0546 9.5136 14.9857 9.5136 14.9172C9.51676 12.5737 10.4494 10.327 12.107 8.67025C13.7645 7.01347 16.0116 6.08186 18.3552 6.0798C19.1488 6.08038 19.9097 6.39571 20.4711 6.95663C21.0324 7.51754 21.3484 8.27823 21.3496 9.07181C21.3496 9.09405 21.3496 9.11613 21.3496 9.13829L21.0101 15.3678L18.88 12.8831V12.4798C18.88 11.9706 18.6777 11.4822 18.3176 11.1222C17.9576 10.7621 17.4692 10.5598 16.96 10.5598C16.4508 10.5598 15.9624 10.7621 15.6024 11.1222C15.2423 11.4822 15.04 11.9706 15.04 12.4798V12.8708L9.7476 18.6444L9.516 15.124ZM15.5376 41.9198C14.3562 41.9195 13.2198 41.4669 12.3616 40.655C11.5035 39.8431 10.9887 38.7334 10.923 37.5539L10.6625 32.8677C10.9261 33.2122 11.3014 33.4542 11.7241 33.552C12.1467 33.6499 12.5902 33.5976 12.9784 33.4041C13.3666 33.2105 13.6753 32.8878 13.8515 32.4914C14.0277 32.0951 14.0604 31.6497 13.944 31.2318L13.9408 31.2207L11.2819 22.263L16.907 16.638L20.04 20.5548L17.3387 31.2908C17.251 31.6531 17.2736 32.0334 17.4037 32.3828C17.5338 32.7322 17.7653 33.0347 18.0686 33.2515C18.3719 33.4683 18.7331 33.5895 19.1057 33.5994C19.4784 33.6094 19.8455 33.5077 20.16 33.3075V37.2974C20.1586 38.5229 19.6712 39.6978 18.8046 40.5644C17.938 41.431 16.7631 41.9184 15.5376 41.9198Z" fill="#E4181E"/>
<path d="M39.4494 19.9501C39.4494 19.9501 39.7628 15.1772 39.763 15.1684C39.7651 15.0845 39.7661 15.0008 39.7661 14.9172C39.7661 9.33844 35.2257 4.7998 29.6448 4.7998C28.5119 4.80078 27.4256 5.2511 26.6243 6.05197C25.823 6.85285 25.372 7.93888 25.3704 9.0718C25.3704 9.10772 25.3704 9.1438 25.3715 9.17948C25.3715 9.18556 25.3715 9.19164 25.3721 9.1978L25.7846 16.7744L25.4341 17.1833C25.3347 17.2993 25.28 17.447 25.28 17.5998V24.6398C25.28 24.6887 25.2856 24.7374 25.2968 24.785L26.5009 29.9536C26.5399 30.7352 26.56 37.2976 26.56 37.2976C26.5601 38.8345 27.1598 40.3107 28.2313 41.4124C29.3029 42.5141 30.762 43.1543 32.2983 43.197C33.8346 43.2397 35.3269 42.6814 36.458 41.6409C37.5891 40.6003 38.2697 39.1597 38.3551 37.6252L38.9349 27.7902C38.9349 27.7902 40 24.001 40 23.9998V20.7998C40.0001 20.6397 39.9402 20.4854 39.832 20.3673L39.4494 19.9501ZM38.6406 24.1855L36.4283 31.8708C36.4271 31.8748 36.4259 31.8788 36.4249 31.8829C36.3881 32.0207 36.3024 32.1405 36.184 32.2199C36.0655 32.2993 35.9222 32.3331 35.7808 32.3148C35.6393 32.2966 35.5092 32.2276 35.4148 32.1208C35.3203 32.0139 35.2679 31.8764 35.2671 31.7337C35.2673 31.6812 35.2743 31.6288 35.2881 31.5781L37.7476 23.2925L38.6406 24.1855ZM37.8926 21.6272L37.892 21.6268L31.4926 15.2272C31.4332 15.1678 31.3626 15.1207 31.285 15.0885C31.2073 15.0564 31.1241 15.0398 31.04 15.0398C31.0283 15.0398 31.016 15.0398 31.0047 15.0408C30.9148 15.0458 30.827 15.0697 30.747 15.1109C30.6669 15.1521 30.5965 15.2098 30.5403 15.28L26.56 20.2552V17.8365L30.2459 13.5363C30.3454 13.4203 30.4 13.2726 30.4 13.1198V12.4798C30.4 12.3101 30.4675 12.1473 30.5875 12.0273C30.7075 11.9072 30.8703 11.8398 31.04 11.8398C31.2098 11.8398 31.3726 11.9072 31.4926 12.0273C31.6126 12.1473 31.68 12.3101 31.68 12.4798V13.1198C31.68 13.2799 31.7399 13.4342 31.848 13.5523L38.72 21.0488V22.4547L37.8926 21.6272ZM26.56 24.5662V22.3043L26.9556 21.8098L29.416 31.5885C29.4269 31.6339 29.4322 31.6804 29.432 31.727C29.4317 31.8735 29.3771 32.0148 29.279 32.1236C29.1808 32.2324 29.0458 32.301 28.9001 32.3164C28.7544 32.3317 28.6081 32.2927 28.4894 32.2067C28.3707 32.1208 28.288 31.994 28.2571 31.8508C28.2562 31.8469 28.2554 31.8428 28.2545 31.8393L26.56 24.5662ZM26.6508 9.13828C26.6504 9.11612 26.6508 9.09404 26.6508 9.0718C26.652 8.2783 26.9679 7.51767 27.5292 6.95677C28.0905 6.39586 28.8513 6.08048 29.6448 6.0798C31.9884 6.08194 34.2354 7.01359 35.8928 8.67036C37.5503 10.3271 38.483 12.5737 38.4861 14.9172C38.4861 14.986 38.4853 15.0549 38.4837 15.124L38.2524 18.6444L32.96 12.8708V12.4798C32.96 11.9706 32.7577 11.4822 32.3977 11.1222C32.0376 10.7621 31.5492 10.5598 31.04 10.5598C30.5308 10.5598 30.0425 10.7621 29.6824 11.1222C29.3223 11.4822 29.12 11.9706 29.12 12.4798V12.8831L26.9899 15.3678L26.6508 9.13828ZM32.4624 41.9198C31.2369 41.9184 30.062 41.431 29.1954 40.5644C28.3288 39.6978 27.8414 38.5229 27.84 37.2974V33.3075C28.1228 33.4875 28.4488 33.5882 28.7839 33.5989C29.1189 33.6096 29.4507 33.53 29.7444 33.3683C30.0381 33.2067 30.2829 32.9691 30.4531 32.6803C30.6234 32.3915 30.7128 32.0622 30.712 31.727C30.712 31.5776 30.6942 31.4288 30.6591 31.2836L27.96 20.5548L31.0934 16.638L36.7184 22.263L34.0591 31.2204L34.0559 31.2316C33.9396 31.6494 33.9723 32.0947 34.1486 32.491C34.3248 32.8873 34.6335 33.21 35.0216 33.4035C35.4098 33.597 35.8532 33.6494 36.2758 33.5517C36.6984 33.4539 37.0737 33.2121 37.3375 32.8678L37.0771 37.554C37.0113 38.7336 36.4965 39.8432 35.6383 40.655C34.7802 41.4669 33.6438 41.9195 32.4624 41.9198Z" fill="#E4181E"/>
</svg>
